<?xml version="1.0" encoding="UTF-8" standalone="no"?>
<svg
   xmlns:dc="http://purl.org/dc/elements/1.1/"
   xmlns:cc="http://creativecommons.org/ns#"
   xmlns:rdf="http://www.w3.org/1999/02/22-rdf-syntax-ns#"
   xmlns:svg="http://www.w3.org/2000/svg"
   xmlns="http://www.w3.org/2000/svg"
   version="1.1"
   width="300"
   height="300"
   id="svg2">
  <metadata
     id="metadata8">
    <rdf:RDF>
      <cc:Work rdf:about="">
        <dc:format>image/svg+xml</dc:format>
        <dc:type
           rdf:resource="http://purl.org/dc/dcmitype/StillImage" />
        <dc:title></dc:title>
      </cc:Work>
    </rdf:RDF>
  </metadata>
  <defs id="defs6" />
  <path
     d="m 120.81837,296.99212 c -37.1629,-3.83887 -54.00858,-9.98212 -69.592475,-25.37885 -15.1475,-14.96558 -21.23263,-28.95703 -23.85781,-54.85595 -0.62581,-6.17392 -1.04971,-39.01614 -1.04971,-81.32693 l 0,-70.97096 -2.841588,-2.84159 c -2.02397,-2.02398 -4.60052,-3.18764 -8.95469,-4.04427 -6.93735,-1.36484 -10.28849,-4.01702 -8.5527,-6.76883 0.97217,-1.5412 4.51219,-1.69147 39.848978,-1.69147 35.336795,0 38.876815,0.15027 39.848975,1.69147 1.96396,3.11352 -1.50951,5.33399 -10.49588,6.70964 -9.35468,1.43204 -12.26665,2.97784 -13.77828,7.3141 -1.4505,4.16091 -1.46973,133.22178 -0.0218,146.5742 1.37554,12.68521 4.29699,24.9943 7.37274,31.06401 3.6221,7.14786 11.59947,15.34836 18.51792,19.03586 18.85401,10.04908 53.39121,12.01243 77.5327,4.40754 11.0551,-3.4825 15.02573,-5.68026 21.61154,-11.96205 7.09003,-6.76275 11.06679,-14.65748 14.02102,-27.83477 2.20838,-9.85042 2.25057,-11.38365 2.82022,-102.5 l 0.5783,-92.499997 2.33023,-5.782311 c 4.68415,-11.623518 12.01205,-18.19483 23.62241,-21.183484 4.67084,-1.202333 12.07964,-1.534205 34.25,-1.534205 l 28.2899,0 0,2.964816 c 0,3.81929 -1.42798,4.508235 -12.5,6.030758 -4.95,0.680678 -10.4787,1.843939 -12.28599,2.585022 -6.46723,2.651898 -6.21401,-1.472525 -6.21401,101.213601 0,95.41717 -0.40436,107.64704 -4.02772,121.8142 -3.2078,12.5424 -10.11506,24.4909 -19.69702,34.07286 -18.23727,18.23727 -42.2414,25.17396 -89.27526,25.79866 -12.925,0.17167 -25.3,0.12619 -27.5,-0.10107 z"
     id="path2993"
     style="fill:#ee7622;fill-opacity:1" />
</svg>
